<?xml version="1.0" ?><svg viewBox="0 0 32 32" xmlns="http://www.w3.org/2000/svg"><title/><g id="closeVolume"><path d="M11.89,26.45a3.49,3.49,0,0,1-1.59-.39l-.2-.13L5.51,22H3.44A3.25,3.25,0,0,1,0,19V13a3.25,3.25,0,0,1,3.44-3H5.51L10.3,5.94A3.29,3.29,0,0,1,13.56,6,2.92,2.92,0,0,1,15,8.5v15A2.92,2.92,0,0,1,13.56,26,3.22,3.22,0,0,1,11.89,26.45Zm-.59-2.13a1.31,1.31,0,0,0,1.22,0A1,1,0,0,0,13,23.5V8.5a.94.94,0,0,0-.48-.78,1.28,1.28,0,0,0-1.22,0L6.25,12H3.44C2.67,12,2,12.47,2,13v6c0,.53.67,1,1.44,1H6.25Z"/><path d="M20.5,23.7a3.48,3.48,0,0,1-2.47-1,3.52,3.52,0,0,1,0-5l1.38-1.36L18.08,15a3.51,3.51,0,1,1,5-4.93l1.35,1.38,1.37-1.36a3.52,3.52,0,0,1,5,0,3.54,3.54,0,0,1,0,5l-1.38,1.35,1.36,1.37a3.5,3.5,0,1,1-5,4.93l-1.36-1.38L23,22.7A3.48,3.48,0,0,1,20.5,23.7Zm3.88-5.18,2.76,2.79a1.5,1.5,0,1,0,2.13-2.12L26.52,16.4l2.79-2.76a1.51,1.51,0,0,0,0-2.12,1.51,1.51,0,0,0-2.13,0L24.4,14.28l-2.76-2.81a1.5,1.5,0,0,0-2.14,2.11l2.78,2.8-2.81,2.76a1.51,1.51,0,0,0,0,2.12,1.55,1.55,0,0,0,2.12,0Z"/></g></svg>