<?xml version="1.0" ?><svg viewBox="0 0 32 32" xmlns="http://www.w3.org/2000/svg"><title/><g id="next02"><path d="M15.42,30H14.6a2.6,2.6,0,0,1-1.85-.78A2.54,2.54,0,0,1,12,27.38L12,4.61A2.61,2.61,0,0,1,14.64,2h.82a4.78,4.78,0,0,1,2.47,1.32L30.58,13.6a3.46,3.46,0,0,1,0,4.86l-.08.07L17.87,28.71A4.75,4.75,0,0,1,15.42,30ZM15.36,4h-.75a.62.62,0,0,0-.61.61l0,22.77a.64.64,0,0,0,.17.43.62.62,0,0,0,.43.18h.82a5,5,0,0,0,1.1-.77l.09-.08L29.15,17a1.45,1.45,0,0,0,0-2L16.54,4.79A4.78,4.78,0,0,0,15.36,4Z"/><path d="M3.32,30H2.6A2.62,2.62,0,0,1,0,27.38L0,4.61A2.61,2.61,0,0,1,2.63,2h.73a4.57,4.57,0,0,1,2.4,1.33L13.57,10l.4.27,0,.55,0,10.9-.38.38L5.71,28.69A4.53,4.53,0,0,1,3.32,30ZM3.25,4H2.61A.62.62,0,0,0,2,4.62L2,27.38a.61.61,0,0,0,.61.62H3.3a5.5,5.5,0,0,0,1-.76l.08-.08L12,20.8l0-9.56L4.36,4.77A4.44,4.44,0,0,0,3.25,4Z"/></g></svg>